<?xml version="1.0" encoding="UTF-8"?> <svg xmlns="http://www.w3.org/2000/svg" xmlns:xlink="http://www.w3.org/1999/xlink" viewBox="0 0 93.4 100"><defs><style>.cls-1{fill:none;}.cls-2{fill:#231f20;}.cls-3{fill:#008243;}.cls-4{fill:#549866;}.cls-5{fill:#f6acaa;}.cls-6{fill:#f0786a;}.cls-7{fill:url(#_6_dpi_90_);}.cls-8{fill:#403f4c;}.cls-9{fill:url(#Tulips_Color);}</style><pattern id="_6_dpi_90_" data-name="6 dpi 90%" width="48" height="48" patternUnits="userSpaceOnUse" viewBox="0 0 48 48"><rect class="cls-1" width="48" height="48"></rect><path class="cls-2" d="M24,58.8A10.8,10.8,0,1,0,13.2,48,10.81,10.81,0,0,0,24,58.8Z"></path><circle class="cls-2" cx="48" cy="48" r="10.8"></circle><path class="cls-2" d="M24,34.8A10.8,10.8,0,1,0,13.2,24,10.81,10.81,0,0,0,24,34.8Z"></path><circle class="cls-2" cx="48" cy="24" r="10.8"></circle><path class="cls-2" d="M36,46.8A10.8,10.8,0,1,0,25.2,36,10.81,10.81,0,0,0,36,46.8Z"></path><path class="cls-2" d="M12,46.8A10.8,10.8,0,1,0,1.2,36,10.81,10.81,0,0,0,12,46.8Z"></path><path class="cls-2" d="M36,22.8A10.8,10.8,0,1,0,25.2,12,10.81,10.81,0,0,0,36,22.8Z"></path><path class="cls-2" d="M12,22.8A10.8,10.8,0,1,0,1.2,12,10.81,10.81,0,0,0,12,22.8Z"></path><circle class="cls-2" cy="48" r="10.8"></circle><circle class="cls-2" cy="24" r="10.8"></circle><path class="cls-2" d="M24,10.8A10.81,10.81,0,0,0,34.8,0,10.8,10.8,0,1,0,13.2,0,10.81,10.81,0,0,0,24,10.8Z"></path><circle class="cls-2" cx="48" r="10.8"></circle><circle class="cls-2" r="10.8"></circle></pattern><pattern id="Tulips_Color" data-name="Tulips Color" width="72.12" height="72.12" patternUnits="userSpaceOnUse" viewBox="0 0 72.12 72.12"><rect class="cls-1" width="72.12" height="72.12"></rect><rect class="cls-3" x="70.74" y="65.56" width="2.75" height="13.13"></rect><rect class="cls-3" x="-1.38" y="65.56" width="2.75" height="13.13"></rect><rect class="cls-3" x="70.74" y="65.56" width="2.75" height="13.13"></rect><polygon class="cls-3" points="7.38 73.99 7.38 70.99 1.94 75.12 1.94 78.12 7.38 73.99"></polygon><polygon class="cls-3" points="64.74 73.99 64.74 70.99 70.18 75.12 70.18 78.12 64.74 73.99"></polygon><polygon class="cls-4" points="7.38 70.99 7.38 67.99 1.94 72.12 1.94 75.12 7.38 70.99"></polygon><polygon class="cls-4" points="64.74 70.99 64.74 67.99 70.18 72.12 70.18 75.12 64.74 70.99"></polygon><rect class="cls-3" x="-1.38" y="65.56" width="2.75" height="13.13"></rect><polygon class="cls-5" points="66.12 51.18 69.12 54.18 72.12 51.18 75.12 54.18 78.12 51.18 78.12 55.87 75.12 58.87 72.12 55.87 69.12 58.87 66.12 55.87 66.12 51.18"></polygon><polygon class="cls-6" points="66.12 62.18 69.12 65.18 75.12 65.18 78.12 62.18 78.12 55.87 75.12 58.87 72.12 55.87 69.12 58.87 66.12 55.87 66.12 62.18"></polygon><rect class="cls-3" x="70.74" y="-6.56" width="2.75" height="13.13"></rect><rect class="cls-3" x="70.74" y="65.56" width="2.75" height="13.13"></rect><polygon class="cls-5" points="-6 51.18 -3 54.18 0 51.18 3 54.18 6 51.18 6 55.87 3 58.87 0 55.87 -3 58.87 -6 55.87 -6 51.18"></polygon><polygon class="cls-5" points="66.12 51.18 69.12 54.18 72.12 51.18 75.12 54.18 78.12 51.18 78.12 55.87 75.12 58.87 72.12 55.87 69.12 58.87 66.12 55.87 66.12 51.18"></polygon><polygon class="cls-5" points="30.06 15.12 33.06 18.12 36.06 15.12 39.06 18.12 42.06 15.12 42.06 19.81 39.06 22.81 36.06 19.81 33.06 22.81 30.06 19.81 30.06 15.12"></polygon><polygon class="cls-6" points="-6 62.18 -3 65.18 3 65.18 6 62.18 6 55.87 3 58.87 0 55.87 -3 58.87 -6 55.87 -6 62.18"></polygon><polygon class="cls-6" points="66.12 62.18 69.12 65.18 75.12 65.18 78.12 62.18 78.12 55.87 75.12 58.87 72.12 55.87 69.12 58.87 66.12 55.87 66.12 62.18"></polygon><polygon class="cls-6" points="30.06 26.12 33.06 29.12 39.06 29.12 42.06 26.12 42.06 19.81 39.06 22.81 36.06 19.81 33.06 22.81 30.06 19.81 30.06 26.12"></polygon><rect class="cls-3" x="-1.38" y="-6.56" width="2.75" height="13.13"></rect><rect class="cls-3" x="-1.38" y="65.56" width="2.75" height="13.13"></rect><rect class="cls-3" x="70.74" y="65.56" width="2.75" height="13.13"></rect><rect class="cls-3" x="70.74" y="-6.56" width="2.75" height="13.13"></rect><rect class="cls-3" x="34.68" y="29.5" width="2.75" height="13.13"></rect><polygon class="cls-3" points="7.38 1.88 7.38 -1.13 1.94 3 1.94 6 7.38 1.88"></polygon><polygon class="cls-3" points="7.38 73.99 7.38 70.99 1.94 75.12 1.94 78.12 7.38 73.99"></polygon><polygon class="cls-3" points="64.74 73.99 64.74 70.99 70.18 75.12 70.18 78.12 64.74 73.99"></polygon><polygon class="cls-3" points="64.74 1.88 64.74 -1.13 70.18 3 70.18 6 64.74 1.88"></polygon><polygon class="cls-3" points="43.43 37.94 43.43 34.94 38 39.06 38 42.06 43.43 37.94"></polygon><polygon class="cls-3" points="28.68 37.94 28.68 34.94 34.12 39.06 34.12 42.06 28.68 37.94"></polygon><polygon class="cls-4" points="7.38 -1.13 7.38 -4.13 1.94 0 1.94 3 7.38 -1.13"></polygon><polygon class="cls-4" points="7.38 70.99 7.38 67.99 1.94 72.12 1.94 75.12 7.38 70.99"></polygon><polygon class="cls-4" points="64.74 70.99 64.74 67.99 70.18 72.12 70.18 75.12 64.74 70.99"></polygon><polygon class="cls-4" points="64.74 -1.13 64.74 -4.13 70.18 0 70.18 3 64.74 -1.13"></polygon><polygon class="cls-4" points="43.43 34.94 43.43 31.93 38 36.06 38 39.06 43.43 34.94"></polygon><polygon class="cls-4" points="28.68 34.94 28.68 31.93 34.12 36.06 34.12 39.06 28.68 34.94"></polygon><polygon class="cls-5" points="-6 51.18 -3 54.18 0 51.18 3 54.18 6 51.18 6 55.87 3 58.87 0 55.87 -3 58.87 -6 55.87 -6 51.18"></polygon><polygon class="cls-6" points="-6 62.18 -3 65.18 3 65.18 6 62.18 6 55.87 3 58.87 0 55.87 -3 58.87 -6 55.87 -6 62.18"></polygon><rect class="cls-3" x="-1.38" y="65.56" width="2.75" height="13.13"></rect><rect class="cls-3" x="-1.38" y="-6.56" width="2.75" height="13.13"></rect><rect class="cls-3" x="70.74" y="-6.56" width="2.75" height="13.13"></rect><rect class="cls-3" x="-1.38" y="-6.56" width="2.75" height="13.13"></rect><rect class="cls-3" x="70.74" y="-6.56" width="2.75" height="13.13"></rect><polygon class="cls-3" points="7.38 1.88 7.38 -1.13 1.94 3 1.94 6 7.38 1.88"></polygon><polygon class="cls-3" points="64.74 1.88 64.74 -1.13 70.18 3 70.18 6 64.74 1.88"></polygon><polygon class="cls-4" points="7.38 -1.13 7.38 -4.13 1.94 0 1.94 3 7.38 -1.13"></polygon><polygon class="cls-4" points="64.74 -1.13 64.74 -4.13 70.18 0 70.18 3 64.74 -1.13"></polygon><rect class="cls-3" x="-1.38" y="-6.56" width="2.75" height="13.13"></rect></pattern></defs><title>Asset 1</title><g id="Layer_2" data-name="Layer 2"><g id="Layer_1-2" data-name="Layer 1"><path class="cls-7" d="M81.84,72.76,73.9,80.71a2,2,0,0,0,1.4,3.39,2,2,0,0,0,1.41-.58l7.94-8a2,2,0,1,0-2.81-2.81Z"></path><path class="cls-7" d="M91.25,41.34a2,2,0,0,0-2,2v2l-.31,0-.61.09A41.07,41.07,0,0,0,79.67,23l2.18-1.57a1.57,1.57,0,0,0,.24-.21l1.45,1.45a2,2,0,0,0,2.8,0,2,2,0,0,0,0-2.81L78.4,11.93a2,2,0,0,0-2.81,2.81L77,16.19a2.2,2.2,0,0,0-.2.23l-1.41,1.95A41.16,41.16,0,0,0,50.18,7.26l.48-3a1.56,1.56,0,0,0,0-.31h2a2,2,0,1,0,0-4H41.5a2,2,0,1,0,0,4h2a3,3,0,0,0,0,.31l.48,3A41.24,41.24,0,0,0,18.5,18.64l-2.32-3.21a2.31,2.31,0,0,0-.2-.24l1.44-1.44a2,2,0,0,0-2.8-2.81L6.67,18.88a2,2,0,0,0,1.41,3.39,2,2,0,0,0,1.4-.58l1.45-1.45.23.21,3.45,2.48a41.17,41.17,0,0,0-8.85,25L2.3,47.38a2,2,0,0,0-1.6.45A2,2,0,0,0,0,49.34v3.18A2,2,0,0,0,.7,54,2,2,0,0,0,2,54.5l.31,0,3.8-.62A41.24,41.24,0,0,0,15.8,75.5l-.35.25a2,2,0,0,0-.81,1.45,2,2,0,0,0,.57,1.57L17.46,81a2,2,0,0,0,1.4.58H19a2,2,0,0,0,1.45-.82l.3-.41a41.34,41.34,0,0,0,67.5-28l.68.11.31,0v2a2,2,0,0,0,4,0V43.33A2,2,0,0,0,91.25,41.34ZM56.94,42.48a4.26,4.26,0,1,1-.16-5.85A4.13,4.13,0,0,1,56.94,42.48ZM72.1,57c-1.94,1.94-4.84,2.19-6.48.56s-1.38-4.53.57-6.48,4.84-2.2,6.48-.56S74.05,55.06,72.1,57ZM67.66,39.28a6.52,6.52,0,0,1-.4-9.2c2.42-2.43,6.54-2.25,9.19.4a6.52,6.52,0,0,1,.41,9.2A6.52,6.52,0,0,1,67.66,39.28Z"></path><path class="cls-8" d="M52.73,97H41.5a1.49,1.49,0,0,0,0,3H52.73a1.49,1.49,0,0,0,0-3Z"></path><path class="cls-8" d="M52.73,91.93H41.5a1.49,1.49,0,1,0,0,3H52.73a1.49,1.49,0,1,0,0-3Z"></path><circle class="cls-8" cx="47.11" cy="80.52" r="8.1"></circle><path class="cls-9" d="M82,72.76l-8,7.95a2,2,0,0,0,0,2.81,2,2,0,0,0,2.81,0l7.94-8A2,2,0,0,0,82,72.76Z"></path><path class="cls-9" d="M91.41,41.34a2,2,0,0,0-2,2v2a1.55,1.55,0,0,0-.31,0l-.61.09A41.22,41.22,0,0,0,79.84,23L82,21.44a1.51,1.51,0,0,0,.23-.21l1.45,1.45a2,2,0,0,0,2.81,0,2,2,0,0,0,0-2.81l-8-7.94a2,2,0,1,0-2.8,2.81l1.44,1.45a2.2,2.2,0,0,0-.2.23l-1.41,1.95A41.16,41.16,0,0,0,50.35,7.26l.48-3a3,3,0,0,0,0-.31h2a2,2,0,0,0,0-4H41.66a2,2,0,0,0,0,4h2.05a1.56,1.56,0,0,0,0,.31l.48,3A41.27,41.27,0,0,0,18.66,18.64l-2.31-3.21-.21-.24,1.45-1.44a2,2,0,0,0-2.81-2.81L6.84,18.88a2,2,0,0,0,0,2.81,1.94,1.94,0,0,0,1.4.58,2,2,0,0,0,1.41-.58l1.44-1.45.24.21,3.44,2.48a41.1,41.1,0,0,0-8.84,25l-3.46-.56a2,2,0,0,0-2.31,2v3.18A2,2,0,0,0,.86,54a2,2,0,0,0,1.29.47l.32,0,3.8-.62A41.16,41.16,0,0,0,16,75.5l-.35.25a2,2,0,0,0-.24,3L17.62,81a2,2,0,0,0,1.41.58h.15a2,2,0,0,0,1.46-.82l.29-.41a41.34,41.34,0,0,0,67.5-28l.69.11a3,3,0,0,0,.31,0v2a2,2,0,1,0,4,0V43.33A2,2,0,0,0,91.41,41.34ZM57.1,42.48A4.26,4.26,0,1,1,57,36.63,4.13,4.13,0,0,1,57.1,42.48ZM72.27,57c-2,1.94-4.85,2.19-6.48.56s-1.38-4.53.56-6.48,4.85-2.2,6.48-.56S74.21,55.06,72.27,57ZM67.82,39.28a6.52,6.52,0,0,1-.4-9.2,6.52,6.52,0,0,1,9.2.4,6.52,6.52,0,0,1,.4,9.2C74.6,42.11,70.48,41.93,67.82,39.28Z"></path><path class="cls-9" d="M52.9,97H41.66a1.49,1.49,0,1,0,0,3H52.9a1.49,1.49,0,1,0,0-3Z"></path><path class="cls-9" d="M52.9,91.91H41.66a1.49,1.49,0,1,0,0,3H52.9a1.49,1.49,0,0,0,0-3Z"></path><circle class="cls-9" cx="47.28" cy="80.5" r="8.1"></circle></g></g></svg> 