<?xml version="1.0" encoding="UTF-8"?> <svg xmlns="http://www.w3.org/2000/svg" viewBox="0 0 529.3 291.56"><defs><style>.cls-1{fill:#d3d3d3;}.cls-2{fill:#403f4c;}</style></defs><title>Asset 1</title><g id="Layer_2" data-name="Layer 2"><g id="Layer_1-2" data-name="Layer 1"><path class="cls-1" d="M245.57,218.34l-23.84,23.83a6,6,0,1,0,8.43,8.43L254,226.76a6,6,0,0,0-8.43-8.42Z"></path><path class="cls-1" d="M273.8,124a6,6,0,0,0-6,6v6.15a5.81,5.81,0,0,0-.93.06l-1.83.3a123.43,123.43,0,0,0-26-67.46l6.54-4.72a6.8,6.8,0,0,0,.7-.61l4.35,4.34a6,6,0,1,0,8.42-8.43L235.25,35.8a6,6,0,0,0-8.43,8.42l4.34,4.35a6,6,0,0,0-.61.71l-4.21,5.84a123.6,123.6,0,0,0-75.76-33.35L152,12.85a5.81,5.81,0,0,0,.06-.93h6.15a6,6,0,1,0,0-11.92H124.52a6,6,0,1,0,0,11.92h6.14a5.82,5.82,0,0,0,.07.93l1.44,8.92A123.64,123.64,0,0,0,55.51,55.93l-7-9.63a5.19,5.19,0,0,0-.61-.71l4.34-4.34a6,6,0,1,0-8.42-8.43L20,56.65a6,6,0,1,0,8.43,8.43l4.34-4.34a6,6,0,0,0,.71.61L43.83,68.8A123.53,123.53,0,0,0,17.3,143.85L6.91,142.17A6,6,0,0,0,0,148.06v9.52a6,6,0,0,0,6,6,6.19,6.19,0,0,0,1-.08l11.41-1.84a123.51,123.51,0,0,0,29.1,64.92l-1.05.76a6,6,0,0,0-.72,9l6.73,6.74a6,6,0,0,0,4.21,1.74,3.85,3.85,0,0,0,.48,0,6,6,0,0,0,4.36-2.45l.88-1.23a124.06,124.06,0,0,0,202.55-84l2.05.33a5.84,5.84,0,0,0,.93.08v6.13a6,6,0,1,0,11.92,0V130A6,6,0,0,0,273.8,124Zm-103,3.43c-4.72,4.72-12.58,4.51-17.56-.47s-5.19-12.84-.47-17.56,12.58-4.51,17.56.47S175.57,122.75,170.85,127.47Zm45.5,43.58c-5.84,5.84-14.54,6.6-19.44,1.69s-4.15-13.6,1.69-19.44,14.54-6.59,19.44-1.69S222.19,165.21,216.35,171.05ZM203,117.85c-8-8-8.5-20.31-1.22-27.6s19.65-6.74,27.61,1.21,8.5,20.32,1.21,27.61S211,125.81,203,117.85Z"></path><circle class="cls-2" cx="141.37" cy="241.54" r="24.3"></circle><g id="raleway_then_moved_tops_of_b_d_and_t_by_20_px_i_beleive" data-name="raleway then moved tops of b d and t by 20 px i beleive"><path class="cls-2" d="M53.31,264.52a19,19,0,0,1-10.1-2.88,21.87,21.87,0,0,1-7.4-7.23v9.24H33V208.12h3v20.52a29.57,29.57,0,0,1,7.8-7.93,18,18,0,0,1,10.32-3.05A18.51,18.51,0,0,1,63,219.75a21.56,21.56,0,0,1,6.49,5.37,24.77,24.77,0,0,1,4.09,7.54A26,26,0,0,1,75,241.18,23.84,23.84,0,0,1,73.36,250a23.5,23.5,0,0,1-4.61,7.44,22.6,22.6,0,0,1-6.93,5.14A19,19,0,0,1,53.31,264.52Zm-.43-2.79a16.63,16.63,0,0,0,7.7-1.79,19.79,19.79,0,0,0,6.06-4.65,22,22,0,0,0,4-6.58A20.59,20.59,0,0,0,72,241.18a23,23,0,0,0-1.35-7.75,21.71,21.71,0,0,0-3.75-6.62,18.54,18.54,0,0,0-5.79-4.62,16.23,16.23,0,0,0-7.49-1.74,15.87,15.87,0,0,0-5.75,1.05A19.14,19.14,0,0,0,43,224.28a24,24,0,0,0-4,4,26.56,26.56,0,0,0-3,4.84v15.72a10.12,10.12,0,0,0,2,5,18.13,18.13,0,0,0,4.1,4.1,20.57,20.57,0,0,0,5.36,2.79A16.08,16.08,0,0,0,52.88,261.73Z"></path><path class="cls-2" d="M110.2,221.12a18.16,18.16,0,0,0-10.89,4,19.29,19.29,0,0,0-6.44,10.06v28.47h-3V218.36h2.87v11.5A22.07,22.07,0,0,1,99,222a16.75,16.75,0,0,1,8.36-3.57c.54,0,1.09-.08,1.64-.09h1.18Z"></path><path class="cls-2" d="M186.78,264.52a15.28,15.28,0,0,1-5.83-1.09,15.06,15.06,0,0,1-4.71-3,13.45,13.45,0,0,1-3.13-4.4,13,13,0,0,1-1.09-5.45,10.26,10.26,0,0,1,1.39-5.27,13.2,13.2,0,0,1,3.88-4.13,19.25,19.25,0,0,1,5.92-2.7,28.17,28.17,0,0,1,7.53-1,49.78,49.78,0,0,1,7.71.61,35.18,35.18,0,0,1,7,1.83v-4.8q0-6.8-3.88-10.84t-10.4-4a19.86,19.86,0,0,0-7.06,1.44,33.35,33.35,0,0,0-7.49,4.13l-1.39-2.17q8.7-5.91,16.11-5.93,7.92,0,12.5,4.71t4.57,12.89v23.59c0,1.28.52,1.92,1.57,1.92v2.79a1.61,1.61,0,0,1-.48.08h-.39a3.24,3.24,0,0,1-2.49-1.09,3.81,3.81,0,0,1-1-2.65v-4a20.64,20.64,0,0,1-8.1,6.32A25.77,25.77,0,0,1,186.78,264.52Zm.35-2.53a24.58,24.58,0,0,0,6.49-.87,23.66,23.66,0,0,0,5.88-2.39,15.57,15.57,0,0,0,4.26-3.53,6.52,6.52,0,0,0,1.66-4.27V242.4A40.36,40.36,0,0,0,191,239.78a26.12,26.12,0,0,0-6.53.79,17.52,17.52,0,0,0-5.09,2.18,10.28,10.28,0,0,0-3.32,3.37,8.33,8.33,0,0,0-1.18,4.4,10.65,10.65,0,0,0,1,4.52,11.66,11.66,0,0,0,6.46,6.08A12.87,12.87,0,0,0,187.13,262Z"></path><path class="cls-2" d="M244.54,264.52a19.06,19.06,0,0,1-8.71-2,22.82,22.82,0,0,1-6.92-5.26,23.92,23.92,0,0,1-4.53-7.45,23.5,23.5,0,0,1-1.61-8.62,25.88,25.88,0,0,1,1.56-9,24.08,24.08,0,0,1,4.36-7.49,21.3,21.3,0,0,1,6.62-5.14,18.5,18.5,0,0,1,8.36-1.92,19.25,19.25,0,0,1,5.74.87,20.94,20.94,0,0,1,5,2.4,23.55,23.55,0,0,1,4.18,3.53,24.79,24.79,0,0,1,3.18,4.18v-20.5h3v50.82c0,1.28.53,1.92,1.57,1.92v2.79a2.35,2.35,0,0,1-.7.08,3.31,3.31,0,0,1-2.62-1.17,3.86,3.86,0,0,1-1-2.66v-5.49a20.93,20.93,0,0,1-3.36,4.14,21.43,21.43,0,0,1-4.22,3.18,21.86,21.86,0,0,1-4.79,2A17.75,17.75,0,0,1,244.54,264.52Zm.35-2.79a15.78,15.78,0,0,0,5.39-1,21.87,21.87,0,0,0,5.36-2.84,17.42,17.42,0,0,0,4.18-4.17,10.44,10.44,0,0,0,2-5v-15.6a17.43,17.43,0,0,0-2.87-5,21,21,0,0,0-4.31-4,23.42,23.42,0,0,0-5.18-2.7,15.81,15.81,0,0,0-5.36-1,16.08,16.08,0,0,0-7.57,1.79,18,18,0,0,0-5.75,4.7,22.13,22.13,0,0,0-3.66,6.62,22.78,22.78,0,0,0-1.31,7.62,20.74,20.74,0,0,0,1.48,7.79,21.26,21.26,0,0,0,4.06,6.53,19.41,19.41,0,0,0,6,4.53,16.74,16.74,0,0,0,7.54,1.73Z"></path><path class="cls-2" d="M300.83,264.52a26.82,26.82,0,0,1-9.75-1.74,21.72,21.72,0,0,1-8-5.4l1.65-2a27.19,27.19,0,0,0,7.49,5,21.37,21.37,0,0,0,8.54,1.65q6.35,0,10.27-2.7a8.68,8.68,0,0,0,3.92-7.58,6.73,6.73,0,0,0-1-3.78,8.31,8.31,0,0,0-2.93-2.66,23.25,23.25,0,0,0-4.75-1.91q-2.82-.83-6.48-1.7c-2.5-.58-4.66-1.14-6.49-1.7a18.61,18.61,0,0,1-4.57-2,7,7,0,0,1-2.7-2.87,9.82,9.82,0,0,1-.87-4.44,11.31,11.31,0,0,1,4.86-9.85,15.68,15.68,0,0,1,5.14-2.39,24.24,24.24,0,0,1,6.23-.79,22.52,22.52,0,0,1,9.44,1.83,13.48,13.48,0,0,1,5.8,4.62l-2,1.48a12.06,12.06,0,0,0-5.61-4,23.07,23.07,0,0,0-12.94-.83,12.26,12.26,0,0,0-4.13,1.83,9,9,0,0,0-3.93,7.7,7.72,7.72,0,0,0,.7,3.48,5.5,5.5,0,0,0,2.23,2.35,15.22,15.22,0,0,0,3.83,1.57c1.54.44,3.41.91,5.62,1.44,2.78.64,5.25,1.27,7.4,1.91a26.59,26.59,0,0,1,5.49,2.27,9.57,9.57,0,0,1,3.44,3.22,9.26,9.26,0,0,1,1.17,4.88,11.9,11.9,0,0,1-1.22,5.44,12.2,12.2,0,0,1-3.44,4.14,15.47,15.47,0,0,1-5.4,2.65A25.1,25.1,0,0,1,300.83,264.52Z"></path><path class="cls-2" d="M355.38,261.56l-.87.47a14.48,14.48,0,0,1-1.87.88,16.14,16.14,0,0,1-2.7.82,15.07,15.07,0,0,1-3.35.35,9.17,9.17,0,0,1-5.88-2,6.63,6.63,0,0,1-2.48-5.53V221h-6.45v-2.61h6.45v-7.54h3v7.54h10.71V221H341.19v35.15A4.92,4.92,0,0,0,343.1,260a6.47,6.47,0,0,0,4,1.3,10.86,10.86,0,0,0,2.66-.3,14.3,14.3,0,0,0,2.22-.7,10.11,10.11,0,0,0,1.56-.74,4.25,4.25,0,0,0,.7-.43Z"></path><path class="cls-2" d="M393.67,221.12a18.13,18.13,0,0,0-10.88,4,19.31,19.31,0,0,0-6.45,10.06v28.47h-3V218.36h2.87v11.5a22,22,0,0,1,6.27-7.84,16.75,16.75,0,0,1,8.36-3.57c.53,0,1.07-.08,1.61-.09h1.18Z"></path><path class="cls-2" d="M420.75,264.52a20,20,0,0,1-8.62-1.88,22,22,0,0,1-7-5.13,24.1,24.1,0,0,1-4.7-7.58,24.64,24.64,0,0,1-1.7-9.19,23.94,23.94,0,0,1,1.66-9,22.55,22.55,0,0,1,11.49-12.28,20.12,20.12,0,0,1,8.54-1.83,20.84,20.84,0,0,1,8.7,1.83,22,22,0,0,1,7,5,23.51,23.51,0,0,1,4.66,7.45,24.2,24.2,0,0,1,1.7,9.05v.7c0,.35,0,.55-.09.61H401.77a23.57,23.57,0,0,0,2,7.79,20.55,20.55,0,0,0,4.18,6.23,19.52,19.52,0,0,0,5.92,4.14A16.88,16.88,0,0,0,421,262a18.72,18.72,0,0,0,9.32-2.52,15.79,15.79,0,0,0,3.65-2.92,14.71,14.71,0,0,0,2.53-3.7l2.7.69a15,15,0,0,1-2.79,4.4,17.25,17.25,0,0,1-4.36,3.53,23.82,23.82,0,0,1-5.36,2.26A20.73,20.73,0,0,1,420.75,264.52Zm18.73-24.74a23.31,23.31,0,0,0-1.83-7.83,21,21,0,0,0-4.14-6.19,18.64,18.64,0,0,0-5.88-4,17.89,17.89,0,0,0-7.14-1.43,17.37,17.37,0,0,0-7.14,1.48,18.14,18.14,0,0,0-5.79,4.09,20.77,20.77,0,0,0-4,6.18,23.58,23.58,0,0,0-1.78,7.75Z"></path><path class="cls-2" d="M475.2,264.52a20,20,0,0,1-8.62-1.88,22,22,0,0,1-7-5.13,24.13,24.13,0,0,1-4.71-7.58,24.84,24.84,0,0,1-1.7-9.19,24.34,24.34,0,0,1,1.66-9,22.6,22.6,0,0,1,11.5-12.28,19.93,19.93,0,0,1,8.53-1.83,20.92,20.92,0,0,1,8.71,1.83,22,22,0,0,1,7,5,23.72,23.72,0,0,1,4.67,7.45,24.22,24.22,0,0,1,1.69,9.05v.7a1.39,1.39,0,0,1-.08.61H456.21a24.13,24.13,0,0,0,2,7.79,21,21,0,0,0,4.18,6.23,19.52,19.52,0,0,0,5.92,4.14,17,17,0,0,0,7.1,1.52,18.64,18.64,0,0,0,9.32-2.52,16.11,16.11,0,0,0,3.66-2.92,14.86,14.86,0,0,0,2.52-3.7l2.7.69a15.19,15.19,0,0,1-2.78,4.4,17.25,17.25,0,0,1-4.31,3.49,23.82,23.82,0,0,1-5.36,2.26A21.12,21.12,0,0,1,475.2,264.52Zm18.72-24.74a22.79,22.79,0,0,0-1.83-7.83,20.77,20.77,0,0,0-4.13-6.19,18.93,18.93,0,0,0-5.88-4,17.89,17.89,0,0,0-7.14-1.43,17.37,17.37,0,0,0-7.14,1.48,18.29,18.29,0,0,0-5.8,4.09,20.77,20.77,0,0,0-4,6.18,23.6,23.6,0,0,0-1.79,7.75Z"></path><path class="cls-2" d="M529.3,261.56a4.37,4.37,0,0,0-.87.47,14.48,14.48,0,0,1-1.87.88,17.14,17.14,0,0,1-2.7.82,15.16,15.16,0,0,1-3.36.35,9.17,9.17,0,0,1-5.88-2,6.63,6.63,0,0,1-2.48-5.53V221H505.7v-2.61h6.44v-7.54h3v7.54h10.71V221H515.1v35.15A5,5,0,0,0,517,260a6.41,6.41,0,0,0,4,1.3,10.86,10.86,0,0,0,2.66-.3,14.3,14.3,0,0,0,2.22-.7,11.81,11.81,0,0,0,1.57-.74,5.06,5.06,0,0,0,.7-.43Z"></path></g><path class="cls-2" d="M140.52,218.05a23.42,23.42,0,1,0,23.82,23v0A23.43,23.43,0,0,0,140.52,218.05Zm.75,44.24a20.47,20.47,0,0,1-20.77-20.18v-.29a20.42,20.42,0,0,1,40.82-1.27c0,.19,0,.38,0,.57a20.49,20.49,0,0,1-19.79,21.17Z"></path><path class="cls-2" d="M123.88,271.49h36a4,4,0,0,1,4,4h0a4,4,0,0,1-4,4h-36a4,4,0,0,1-4-4h0A4,4,0,0,1,123.88,271.49Z"></path><path class="cls-2" d="M123.88,283.56h36a4,4,0,0,1,4,4h0a4,4,0,0,1-4,4h-36a4,4,0,0,1-4-4h0A4,4,0,0,1,123.88,283.56Z"></path><circle class="cls-2" cx="140.92" cy="241.47" r="23.43"></circle><circle class="cls-2" cx="140.92" cy="241.47" r="20.82"></circle></g></g></svg> 