<svg width="764" height="161" viewBox="0 0 764 161" fill="none" xmlns="http://www.w3.org/2000/svg">
<g clip-path="url(#clip0)">
<path d="M148.302 117.176L135.264 129.965C134.901 130.247 134.604 130.601 134.391 131.004C134.178 131.407 134.055 131.849 134.028 132.302C134.002 132.755 134.073 133.209 134.238 133.633C134.403 134.057 134.657 134.442 134.984 134.763C135.311 135.084 135.704 135.333 136.136 135.495C136.568 135.657 137.03 135.727 137.492 135.701C137.953 135.675 138.404 135.554 138.815 135.345C139.225 135.136 139.586 134.844 139.874 134.489L152.912 121.695C153.408 121.075 153.655 120.299 153.606 119.513C153.558 118.726 153.218 117.985 152.65 117.428C152.082 116.871 151.326 116.538 150.525 116.492C149.723 116.445 148.932 116.689 148.302 117.176Z" fill="#D3D3D3"/>
<path d="M163.74 66.5453C162.87 66.5453 162.036 66.8846 161.42 67.4884C160.805 68.0923 160.459 68.9113 160.459 69.7653V73.0658C160.289 73.0632 160.119 73.0739 159.95 73.098L158.95 73.259C157.998 60.069 153.046 47.4601 144.73 37.0555L148.307 34.5224C148.442 34.422 148.57 34.3126 148.69 34.195L151.069 36.5242C151.356 36.8819 151.717 37.1759 152.128 37.3867C152.539 37.5975 152.991 37.7204 153.454 37.7473C153.917 37.7741 154.381 37.7043 154.814 37.5425C155.248 37.3807 155.641 37.1305 155.969 36.8084C156.297 36.4864 156.552 36.0997 156.716 35.6741C156.88 35.2485 156.951 34.7934 156.923 34.3391C156.895 33.8847 156.769 33.4413 156.554 33.0381C156.339 32.6349 156.039 32.2812 155.674 32.0001L142.658 19.2113C142.027 18.7242 141.236 18.4809 140.435 18.5274C139.633 18.5738 138.877 18.9069 138.309 19.4635C137.742 20.0201 137.401 20.7617 137.353 21.5479C137.305 22.3342 137.552 23.1105 138.047 23.73L140.421 26.0645C140.3 26.1828 140.188 26.3102 140.087 26.4456L137.785 29.5797C126.481 19.1181 111.849 12.7975 96.3518 11.6819L97.1284 6.89481C97.1529 6.72957 97.1639 6.56267 97.1612 6.39571H100.525C100.984 6.44806 101.45 6.40439 101.892 6.26755C102.333 6.1307 102.74 5.90379 103.085 5.60172C103.431 5.29964 103.708 4.92923 103.897 4.51481C104.086 4.1004 104.184 3.65136 104.184 3.19717C104.184 2.74299 104.086 2.29395 103.897 1.87953C103.708 1.46512 103.431 1.09471 103.085 0.792631C102.74 0.490554 102.333 0.263643 101.892 0.126801C101.45 -0.0100404 100.984 -0.0537171 100.525 -0.00136019H82.0996C81.6399 -0.0537171 81.1741 -0.0100404 80.7327 0.126801C80.2914 0.263643 79.8846 0.490554 79.5389 0.792631C79.1933 1.09471 78.9167 1.46512 78.7273 1.87953C78.5379 2.29395 78.44 2.74299 78.44 3.19717C78.44 3.65136 78.5379 4.1004 78.7273 4.51481C78.9167 4.92923 79.1933 5.29964 79.5389 5.60172C79.8846 5.90379 80.2914 6.1307 80.7327 6.26755C81.1741 6.40439 81.6399 6.44806 82.0996 6.39571H85.4576C85.4567 6.56281 85.4695 6.72971 85.4959 6.89481L86.2834 11.6819C70.5576 12.8091 55.7277 19.2937 44.3583 30.0144L40.53 24.8463C40.4307 24.7097 40.3191 24.5822 40.1964 24.4653L42.5699 22.1361C42.9348 21.8551 43.2348 21.5013 43.4501 21.0981C43.6655 20.6949 43.7912 20.2515 43.8192 19.7971C43.8471 19.3428 43.7765 18.8878 43.6121 18.4621C43.4477 18.0365 43.1932 17.6499 42.8654 17.3278C42.5376 17.0057 42.1439 16.7555 41.7103 16.5937C41.2768 16.4319 40.8132 16.3621 40.3501 16.3889C39.887 16.4158 39.435 16.5387 39.0239 16.7495C38.6128 16.9604 38.2519 17.2543 37.965 17.612L24.9379 30.4008C24.5758 30.683 24.2785 31.0372 24.0656 31.4401C23.8527 31.843 23.7291 32.2855 23.7027 32.7386C23.6763 33.1916 23.7478 33.6451 23.9125 34.0691C24.0772 34.4932 24.3314 34.8783 24.6584 35.1992C24.9854 35.5201 25.3779 35.7696 25.81 35.9312C26.2422 36.0928 26.7043 36.163 27.166 36.1371C27.6277 36.1112 28.0786 35.9898 28.4892 35.7809C28.8997 35.572 29.2607 35.2803 29.5483 34.9249L31.9218 32.5958C32.0424 32.7147 32.1722 32.8241 32.3101 32.9231L37.9705 36.9213C28.7377 48.4082 23.6364 62.5693 23.4613 77.1981L17.7791 76.2965C17.3134 76.2264 16.8378 76.2555 16.3846 76.3819C15.9314 76.5082 15.5112 76.7288 15.1527 77.0287C14.7941 77.3286 14.5056 77.7008 14.3067 78.1199C14.1078 78.539 14.0032 78.9952 14 79.4575V84.5666C14 85.4206 14.3457 86.2396 14.9611 86.8435C15.5765 87.4473 16.4111 87.7866 17.2814 87.7866C17.4646 87.7868 17.6475 87.7724 17.8283 87.7436L24.0684 86.7562C25.7762 99.65 31.3107 111.766 39.9831 121.597L39.4088 122.004C39.0336 122.278 38.7223 122.627 38.4959 123.029C38.2694 123.43 38.1329 123.874 38.0956 124.332C38.0583 124.789 38.1211 125.249 38.2797 125.681C38.4382 126.112 38.689 126.506 39.0151 126.834L42.6957 130.452C43.3082 131.048 44.1354 131.383 44.9981 131.385C45.0856 131.391 45.1732 131.391 45.2606 131.385C45.7311 131.347 46.1876 131.21 46.5991 130.983C47.0107 130.756 47.3674 130.445 47.6451 130.071L48.1264 129.41C57.6315 137.12 69.0979 142.141 81.2931 143.935C93.4883 145.729 105.951 144.227 117.342 139.592C128.733 134.956 138.621 127.362 145.943 117.625C153.265 107.889 157.745 96.378 158.9 84.3304L160.022 84.5075C160.19 84.5351 160.36 84.5495 160.53 84.5505V87.8402C160.477 88.2914 160.521 88.7485 160.661 89.1816C160.8 89.6147 161.031 90.0139 161.339 90.3531C161.647 90.6922 162.025 90.9636 162.447 91.1495C162.869 91.3354 163.327 91.4314 163.79 91.4314C164.253 91.4314 164.71 91.3354 165.132 91.1495C165.555 90.9636 165.932 90.6922 166.24 90.3531C166.548 90.0139 166.779 89.6147 166.919 89.1816C167.058 88.7485 167.103 88.2914 167.049 87.8402V69.7653C167.049 69.3402 166.963 68.9193 166.797 68.5268C166.63 68.1344 166.386 67.7782 166.078 67.4789C165.771 67.1795 165.406 66.9429 165.005 66.7827C164.603 66.6224 164.174 66.5418 163.74 66.5453ZM107.41 68.3861C104.829 70.9191 100.53 70.8064 97.8065 68.1338C95.083 65.4612 94.9681 61.243 97.5495 58.71C100.131 56.1769 104.429 56.2896 107.153 58.9622C109.877 61.6348 110.019 65.8745 107.437 68.4075L107.41 68.3861ZM132.294 91.774C129.1 94.9081 124.342 95.316 121.662 92.681C118.982 90.0459 119.393 85.3823 122.586 82.2482C125.78 79.114 130.538 78.7115 133.218 81.3412C135.898 83.9709 135.515 88.6613 132.321 91.7955L132.294 91.774ZM125.02 63.2448C120.645 58.9515 120.372 52.3451 124.353 48.4328C128.334 44.5205 135.099 44.8157 139.453 49.0822C143.806 53.3487 144.101 59.9872 140.115 63.8995C136.128 67.8118 129.395 67.5167 125.02 63.2448Z" fill="#D3D3D3"/>
<path d="M100.536 156.202H82.0997C81.4513 156.202 80.8295 156.455 80.371 156.905C79.9126 157.355 79.655 157.965 79.655 158.601C79.655 159.237 79.9126 159.848 80.371 160.298C80.8295 160.747 81.4513 161 82.0997 161H100.536C101.184 161 101.806 160.747 102.264 160.298C102.723 159.848 102.98 159.237 102.98 158.601C102.98 157.965 102.723 157.355 102.264 156.905C101.806 156.455 101.184 156.202 100.536 156.202Z" fill="#403F4C"/>
<path d="M100.536 147.997H82.0997C81.4513 147.997 80.8295 148.249 80.371 148.699C79.9126 149.149 79.655 149.759 79.655 150.396C79.655 151.032 79.9126 151.642 80.371 152.092C80.8295 152.542 81.4513 152.795 82.0997 152.795H100.536C101.184 152.795 101.806 152.542 102.264 152.092C102.723 151.642 102.98 151.032 102.98 150.396C102.98 149.759 102.723 149.149 102.264 148.699C101.806 148.249 101.184 147.997 100.536 147.997Z" fill="#403F4C"/>
<path d="M91.3147 142.668C98.6544 142.668 104.604 136.829 104.604 129.627C104.604 122.424 98.6544 116.586 91.3147 116.586C83.9751 116.586 78.0251 122.424 78.0251 129.627C78.0251 136.829 83.9751 142.668 91.3147 142.668Z" fill="#403F4C"/>
</g>
<path d="M26.368 101.096C28.4587 101.096 30.3787 101.587 32.128 102.568C33.8773 103.507 35.264 104.808 36.288 106.472C37.3547 108.093 37.888 109.885 37.888 111.848C37.888 114.835 37.184 117.139 35.776 118.76C34.368 120.381 32.576 121.491 30.4 122.088V122.408C32.7467 122.877 34.752 123.965 36.416 125.672C38.08 127.379 38.912 129.917 38.912 133.288C38.912 135.421 38.3573 137.384 37.248 139.176C36.1813 140.968 34.7093 142.397 32.832 143.464C30.9973 144.488 28.9707 145 26.752 145H4.608V101.096H26.368ZM23.552 118.888C24.832 118.888 25.9627 118.397 26.944 117.416C27.9253 116.435 28.416 115.197 28.416 113.704C28.416 111.912 27.9253 110.632 26.944 109.864C25.9627 109.053 24.832 108.648 23.552 108.648H13.952V118.888H23.552ZM24.256 137.064C25.664 137.064 26.8587 136.573 27.84 135.592C28.8213 134.611 29.312 133.416 29.312 132.008V131.432C29.312 130.024 28.8213 128.829 27.84 127.848C26.8587 126.867 25.664 126.376 24.256 126.376H13.952V137.064H24.256ZM63.842 123.496C63.842 122.173 63.4793 121.043 62.754 120.104C62.0287 119.123 60.8767 118.632 59.298 118.632C57.8047 118.632 56.6527 119.229 55.842 120.424C55.074 121.576 54.69 123.027 54.69 124.776V145H45.474V112.296H52.386L53.538 117.096C53.7087 116.627 54.1353 115.965 54.818 115.112C55.5433 114.259 56.5673 113.469 57.89 112.744C59.2553 112.019 60.8553 111.656 62.69 111.656C65.634 111.656 67.8953 112.573 69.474 114.408C71.0953 116.243 71.906 118.675 71.906 121.704C71.906 122.344 71.8633 122.984 71.778 123.624C71.7353 124.264 71.6927 124.712 71.65 124.968H63.842V123.496ZM108.339 129.576C108.339 132.861 107.635 135.72 106.227 138.152C104.861 140.584 102.963 142.44 100.531 143.72C98.0985 145 95.3678 145.64 92.3385 145.64H91.3145C88.2852 145.64 85.5545 145 83.1225 143.72C80.6905 142.44 78.7705 140.584 77.3625 138.152C75.9972 135.72 75.3145 132.861 75.3145 129.576V127.72C75.3145 124.435 75.9972 121.576 77.3625 119.144C78.7705 116.712 80.6905 114.856 83.1225 113.576C85.5545 112.296 88.2852 111.656 91.3145 111.656H92.3385C95.3678 111.656 98.0985 112.296 100.531 113.576C102.963 114.856 104.861 116.712 106.227 119.144C107.635 121.576 108.339 124.435 108.339 127.72V129.576ZM98.8665 126.056C98.8665 123.453 98.2052 121.469 96.8825 120.104C95.6025 118.739 93.9172 118.056 91.8265 118.056C89.7358 118.056 88.0292 118.739 86.7065 120.104C85.4265 121.469 84.7865 123.453 84.7865 126.056V131.24C84.7865 133.843 85.4265 135.827 86.7065 137.192C88.0292 138.557 89.7358 139.24 91.8265 139.24C93.9172 139.24 95.6025 138.557 96.8825 137.192C98.2052 135.827 98.8665 133.843 98.8665 131.24V126.056ZM135.319 122.92C135.319 121.469 134.849 120.296 133.911 119.4C133.015 118.504 131.543 118.056 129.495 118.056C128.3 118.056 127.276 118.269 126.423 118.696C125.569 119.08 124.908 119.571 124.439 120.168C124.012 120.765 123.799 121.32 123.799 121.832V122.344H114.775C114.689 121.832 114.647 121.448 114.647 121.192C114.647 119.357 115.244 117.715 116.439 116.264C117.676 114.813 119.383 113.683 121.559 112.872C123.735 112.061 126.231 111.656 129.047 111.656H130.391C134.999 111.656 138.497 112.573 140.887 114.408C143.276 116.2 144.471 118.675 144.471 121.832V136.936C144.471 137.704 144.641 138.28 144.983 138.664C145.367 139.048 145.815 139.24 146.326 139.24C146.753 139.24 147.223 139.155 147.735 138.984C148.247 138.813 148.652 138.664 148.951 138.536V144.296C147.372 145.192 145.495 145.64 143.319 145.64C140.972 145.64 139.18 145.171 137.943 144.232C136.705 143.251 135.98 141.885 135.767 140.136C132.78 143.805 129.111 145.64 124.759 145.64C121.516 145.64 118.849 144.979 116.759 143.656C114.668 142.333 113.623 139.816 113.623 136.104C113.623 133.075 114.476 130.771 116.183 129.192C117.932 127.571 120.343 126.483 123.415 125.928C126.487 125.373 130.455 125.096 135.319 125.096V122.92ZM135.319 130.344C131.265 130.344 128.236 130.749 126.231 131.56C124.268 132.328 123.287 133.608 123.287 135.4C123.287 136.808 123.671 137.811 124.439 138.408C125.249 138.963 126.465 139.24 128.087 139.24C129.196 139.24 130.305 138.941 131.415 138.344C132.524 137.747 133.441 136.893 134.167 135.784C134.935 134.675 135.319 133.437 135.319 132.072V130.344ZM174.849 140.904C172.459 144.061 169.387 145.64 165.633 145.64C163.073 145.64 160.769 145.021 158.72 143.784C156.673 142.547 155.051 140.669 153.857 138.152C152.662 135.635 152.065 132.52 152.065 128.808V128.104C152.065 124.563 152.619 121.555 153.729 119.08C154.838 116.605 156.331 114.749 158.209 113.512C160.129 112.275 162.283 111.656 164.673 111.656C166.721 111.656 168.513 112.083 170.049 112.936C171.627 113.789 172.886 114.835 173.825 116.072V98.92H183.169V145H175.809L174.849 140.904ZM161.537 131.496C161.537 133.971 162.113 135.891 163.265 137.256C164.417 138.579 165.889 139.24 167.681 139.24C169.473 139.24 170.945 138.579 172.097 137.256C173.249 135.891 173.825 133.971 173.825 131.496V126.184C173.825 123.667 173.249 121.747 172.097 120.424C170.945 119.101 169.473 118.44 167.681 118.44C165.889 118.44 164.417 119.101 163.265 120.424C162.113 121.747 161.537 123.667 161.537 126.184V131.496ZM197.487 135.016C197.487 136.509 198.148 137.597 199.471 138.28C200.794 138.92 202.436 139.24 204.399 139.24C206.106 139.24 207.62 138.984 208.943 138.472C210.308 137.96 210.991 137.149 210.991 136.04C210.991 134.845 210.372 133.992 209.135 133.48C207.898 132.968 205.978 132.52 203.375 132.136C200.644 131.667 198.404 131.155 196.655 130.6C194.906 130.045 193.391 129.085 192.111 127.72C190.874 126.355 190.255 124.456 190.255 122.024C190.255 119.805 190.895 117.928 192.175 116.392C193.498 114.813 195.226 113.64 197.359 112.872C199.535 112.061 201.903 111.656 204.463 111.656H205.743C208.004 111.656 210.138 112.04 212.143 112.808C214.191 113.533 215.834 114.579 217.071 115.944C218.308 117.267 218.927 118.781 218.927 120.488C218.927 120.829 218.906 121.149 218.863 121.448C218.82 121.704 218.799 121.853 218.799 121.896H210.607C210.607 119.336 208.644 118.056 204.719 118.056C202.927 118.056 201.476 118.312 200.367 118.824C199.3 119.336 198.767 120.04 198.767 120.936C198.767 122.003 199.343 122.749 200.495 123.176C201.69 123.603 203.546 124.008 206.063 124.392C208.922 124.861 211.226 125.373 212.975 125.928C214.767 126.44 216.324 127.4 217.647 128.808C218.97 130.173 219.631 132.115 219.631 134.632C219.631 138.515 218.266 141.331 215.535 143.08C212.804 144.787 209.327 145.64 205.103 145.64H202.991C200.346 145.64 197.978 145.235 195.887 144.424C193.796 143.613 192.154 142.461 190.959 140.968C189.807 139.475 189.231 137.768 189.231 135.848L189.295 134.568H197.487V135.016ZM243.827 144.424C242.974 144.765 241.843 145.043 240.435 145.256C239.07 145.512 237.854 145.64 236.787 145.64C233.502 145.64 231.027 144.936 229.363 143.528C227.699 142.12 226.867 139.773 226.867 136.488V118.696H223.283V112.296H227.187L230.451 101.864H236.211V112.296H243.827V118.696H236.211V134.888C236.211 136.595 236.531 137.747 237.171 138.344C237.854 138.941 238.75 139.24 239.859 139.24C240.371 139.24 241.032 139.155 241.843 138.984C242.654 138.813 243.315 138.621 243.827 138.408V144.424ZM268.217 123.496C268.217 122.173 267.854 121.043 267.129 120.104C266.404 119.123 265.252 118.632 263.673 118.632C262.18 118.632 261.028 119.229 260.217 120.424C259.449 121.576 259.065 123.027 259.065 124.776V145H249.849V112.296H256.761L257.913 117.096C258.084 116.627 258.51 115.965 259.193 115.112C259.918 114.259 260.942 113.469 262.265 112.744C263.63 112.019 265.23 111.656 267.065 111.656C270.009 111.656 272.27 112.573 273.849 114.408C275.47 116.243 276.281 118.675 276.281 121.704C276.281 122.344 276.238 122.984 276.153 123.624C276.11 124.264 276.068 124.712 276.025 124.968H268.217V123.496ZM311.498 132.776C311.498 135.635 310.815 138.045 309.45 140.008C308.084 141.928 306.271 143.357 304.01 144.296C301.791 145.192 299.359 145.64 296.714 145.64H295.69C292.66 145.64 289.93 145 287.498 143.72C285.066 142.44 283.146 140.605 281.738 138.216C280.372 135.784 279.69 132.904 279.69 129.576V127.72C279.69 124.435 280.394 121.576 281.802 119.144C283.21 116.712 285.108 114.856 287.498 113.576C289.93 112.296 292.66 111.656 295.69 111.656H296.714C299.359 111.656 301.812 112.211 304.074 113.32C306.335 114.387 308.148 115.965 309.514 118.056C310.879 120.104 311.562 122.536 311.562 125.352V130.216H289.162V131.752C289.162 133.885 289.78 135.677 291.018 137.128C292.298 138.536 294.026 139.24 296.202 139.24C298.164 139.24 299.7 138.707 300.81 137.64C301.962 136.531 302.538 134.909 302.538 132.776H311.498ZM295.753 118.056C293.876 118.056 292.34 118.717 291.146 120.04C289.994 121.363 289.332 123.048 289.162 125.096H302.09C302.09 122.92 301.578 121.213 300.554 119.976C299.572 118.696 297.972 118.056 295.753 118.056ZM348.873 132.776C348.873 135.635 348.19 138.045 346.825 140.008C345.459 141.928 343.646 143.357 341.385 144.296C339.166 145.192 336.734 145.64 334.089 145.64H333.065C330.035 145.64 327.305 145 324.873 143.72C322.441 142.44 320.521 140.605 319.113 138.216C317.747 135.784 317.065 132.904 317.065 129.576V127.72C317.065 124.435 317.769 121.576 319.177 119.144C320.585 116.712 322.483 114.856 324.873 113.576C327.305 112.296 330.035 111.656 333.065 111.656H334.089C336.734 111.656 339.187 112.211 341.449 113.32C343.71 114.387 345.523 115.965 346.889 118.056C348.254 120.104 348.937 122.536 348.937 125.352V130.216H326.537V131.752C326.537 133.885 327.155 135.677 328.393 137.128C329.673 138.536 331.401 139.24 333.577 139.24C335.539 139.24 337.075 138.707 338.185 137.64C339.337 136.531 339.913 134.909 339.913 132.776H348.873ZM333.128 118.056C331.251 118.056 329.715 118.717 328.521 120.04C327.369 121.363 326.707 123.048 326.537 125.096H339.465C339.465 122.92 338.953 121.213 337.929 119.976C336.947 118.696 335.347 118.056 333.128 118.056ZM373.64 144.424C372.786 144.765 371.656 145.043 370.248 145.256C368.882 145.512 367.666 145.64 366.6 145.64C363.314 145.64 360.84 144.936 359.176 143.528C357.512 142.12 356.68 139.773 356.68 136.488V118.696H353.096V112.296H357L360.264 101.864H366.024V112.296H373.64V118.696H366.024V134.888C366.024 136.595 366.344 137.747 366.984 138.344C367.666 138.941 368.562 139.24 369.672 139.24C370.184 139.24 370.845 139.155 371.656 138.984C372.466 138.813 373.128 138.621 373.64 138.408V144.424ZM394.108 101.096H414.332V108.968H409.212V137.128H414.332V145H394.108V137.128H399.292V108.968H394.108V101.096ZM431.224 117.096C433.912 113.469 437.389 111.656 441.656 111.656C444.984 111.656 447.715 112.552 449.848 114.344C452.024 116.136 453.112 118.739 453.112 122.152V145H443.768V124.2C443.768 122.536 443.277 121.171 442.296 120.104C441.357 118.995 440.141 118.44 438.648 118.44C436.984 118.44 435.555 119.08 434.36 120.36C433.165 121.597 432.568 123.112 432.568 124.904V145H423.224V112.296H430.2L431.224 117.096ZM467.3 135.016C467.3 136.509 467.961 137.597 469.284 138.28C470.606 138.92 472.249 139.24 474.212 139.24C475.918 139.24 477.433 138.984 478.756 138.472C480.121 137.96 480.804 137.149 480.804 136.04C480.804 134.845 480.185 133.992 478.948 133.48C477.71 132.968 475.79 132.52 473.188 132.136C470.457 131.667 468.217 131.155 466.468 130.6C464.718 130.045 463.204 129.085 461.924 127.72C460.686 126.355 460.068 124.456 460.068 122.024C460.068 119.805 460.708 117.928 461.988 116.392C463.31 114.813 465.038 113.64 467.172 112.872C469.348 112.061 471.716 111.656 474.276 111.656H475.556C477.817 111.656 479.95 112.04 481.956 112.808C484.004 113.533 485.646 114.579 486.884 115.944C488.121 117.267 488.74 118.781 488.74 120.488C488.74 120.829 488.718 121.149 488.676 121.448C488.633 121.704 488.612 121.853 488.612 121.896H480.42C480.42 119.336 478.457 118.056 474.532 118.056C472.74 118.056 471.289 118.312 470.18 118.824C469.113 119.336 468.58 120.04 468.58 120.936C468.58 122.003 469.156 122.749 470.308 123.176C471.502 123.603 473.358 124.008 475.876 124.392C478.734 124.861 481.038 125.373 482.788 125.928C484.58 126.44 486.137 127.4 487.46 128.808C488.782 130.173 489.444 132.115 489.444 134.632C489.444 138.515 488.078 141.331 485.348 143.08C482.617 144.787 479.14 145.64 474.916 145.64H472.804C470.158 145.64 467.79 145.235 465.7 144.424C463.609 143.613 461.966 142.461 460.772 140.968C459.62 139.475 459.044 137.768 459.044 135.848L459.108 134.568H467.3V135.016ZM513.64 144.424C512.786 144.765 511.656 145.043 510.248 145.256C508.882 145.512 507.666 145.64 506.6 145.64C503.314 145.64 500.84 144.936 499.176 143.528C497.512 142.12 496.68 139.773 496.68 136.488V118.696H493.096V112.296H497L500.264 101.864H506.024V112.296H513.64V118.696H506.024V134.888C506.024 136.595 506.344 137.747 506.984 138.344C507.666 138.941 508.562 139.24 509.672 139.24C510.184 139.24 510.845 139.155 511.656 138.984C512.466 138.813 513.128 138.621 513.64 138.408V144.424ZM519.598 98.92H529.07V106.28H519.598V98.92ZM519.661 145V112.296H529.006V145H519.661ZM555.202 144.424C554.349 144.765 553.218 145.043 551.81 145.256C550.445 145.512 549.229 145.64 548.162 145.64C544.877 145.64 542.402 144.936 540.738 143.528C539.074 142.12 538.242 139.773 538.242 136.488V118.696H534.658V112.296H538.562L541.826 101.864H547.586V112.296H555.202V118.696H547.586V134.888C547.586 136.595 547.906 137.747 548.546 138.344C549.229 138.941 550.125 139.24 551.234 139.24C551.746 139.24 552.407 139.155 553.218 138.984C554.029 138.813 554.69 138.621 555.202 138.408V144.424ZM590.984 137.32C590.984 137.96 591.176 138.451 591.56 138.792C591.944 139.091 592.371 139.24 592.84 139.24C593.267 139.24 593.736 139.155 594.248 138.984C594.76 138.813 595.165 138.664 595.464 138.536V144.296C593.885 145.192 592.008 145.64 589.832 145.64C585.565 145.64 583.091 144.083 582.408 140.968C579.72 144.083 576.435 145.64 572.552 145.64C569.224 145.64 566.472 144.744 564.296 142.952C562.163 141.16 561.096 138.557 561.096 135.144V112.296H570.44V133.096C570.44 134.76 570.909 136.147 571.848 137.256C572.829 138.323 574.067 138.856 575.56 138.856C577.224 138.856 578.653 138.237 579.848 137C581.043 135.72 581.64 134.184 581.64 132.392V112.296H590.984V137.32ZM618.14 144.424C617.286 144.765 616.156 145.043 614.748 145.256C613.382 145.512 612.166 145.64 611.1 145.64C607.814 145.64 605.34 144.936 603.676 143.528C602.012 142.12 601.18 139.773 601.18 136.488V118.696H597.596V112.296H601.5L604.764 101.864H610.524V112.296H618.14V118.696H610.524V134.888C610.524 136.595 610.844 137.747 611.484 138.344C612.166 138.941 613.062 139.24 614.172 139.24C614.684 139.24 615.345 139.155 616.156 138.984C616.966 138.813 617.628 138.621 618.14 138.408V144.424ZM654.498 132.776C654.498 135.635 653.815 138.045 652.45 140.008C651.084 141.928 649.271 143.357 647.01 144.296C644.791 145.192 642.359 145.64 639.714 145.64H638.69C635.66 145.64 632.93 145 630.498 143.72C628.066 142.44 626.146 140.605 624.738 138.216C623.372 135.784 622.69 132.904 622.69 129.576V127.72C622.69 124.435 623.394 121.576 624.802 119.144C626.21 116.712 628.108 114.856 630.498 113.576C632.93 112.296 635.66 111.656 638.69 111.656H639.714C642.359 111.656 644.812 112.211 647.074 113.32C649.335 114.387 651.148 115.965 652.514 118.056C653.879 120.104 654.562 122.536 654.562 125.352V130.216H632.162V131.752C632.162 133.885 632.78 135.677 634.018 137.128C635.298 138.536 637.026 139.24 639.202 139.24C641.164 139.24 642.7 138.707 643.81 137.64C644.962 136.531 645.538 134.909 645.538 132.776H654.498ZM638.753 118.056C636.876 118.056 635.34 118.717 634.146 120.04C632.994 121.363 632.332 123.048 632.162 125.096H645.09C645.09 122.92 644.578 121.213 643.554 119.976C642.572 118.696 640.972 118.056 638.753 118.056Z" fill="#403F4C"/>
<defs>
<clipPath id="clip0">
<rect width="153" height="161" fill="white" transform="translate(14)"/>
</clipPath>
</defs>
</svg>
